<?xml version="1.0" encoding="UTF-8" standalone="no"?>
<svg
   xmlns:dc="http://purl.org/dc/elements/1.1/"
   xmlns:cc="http://creativecommons.org/ns#"
   xmlns:rdf="http://www.w3.org/1999/02/22-rdf-syntax-ns#"
   xmlns:svg="http://www.w3.org/2000/svg"
   xmlns="http://www.w3.org/2000/svg"
   viewBox="0 0 200 200"
   height="200"
   width="200"
   xml:space="preserve"
   version="1.1"
   id="svg4155"><metadata
     id="metadata4161"><rdf:RDF><cc:Work
         rdf:about=""><dc:format>image/svg+xml</dc:format><dc:type
           rdf:resource="http://purl.org/dc/dcmitype/StillImage" /><dc:title></dc:title></cc:Work></rdf:RDF></metadata><defs
     id="defs4159"><clipPath
       id="clipPath4169"
       clipPathUnits="userSpaceOnUse"><path
         id="path4171"
         d="m 0,289.899 613.446,0 L 613.446,0 0,0 0,289.899 Z" /></clipPath></defs><g
     transform="matrix(1.25,0,0,-1.25,0,200)"
     id="g4163"><path
       d="m 59.479108,64.466928 c 2.831362,-4.732974 6.68426,-8.464929 11.558694,-11.194785 4.874434,-2.730935 10.224002,-4.095863 16.049782,-4.095863 3.235225,0 6.593552,0.516167 10.071743,1.547422 3.479273,1.031255 6.776043,2.497688 9.890333,4.399301 l 0,24.270664 12.80267,0 0,-32.098482 c -4.49001,-3.398282 -9.76831,-6.128138 -15.83597,-8.191728 -6.067664,-2.062509 -12.055422,-3.093764 -17.961111,-3.093764 -8.45413,0 -16.180443,1.941567 -23.177859,5.8247 -6.998496,3.883134 -12.500317,9.202465 -16.504394,15.957994 -4.005156,6.755529 -6.007195,14.198922 -6.007195,22.329097 0,8.212245 2.043073,15.644839 6.128138,22.298866 4.086141,6.65402 9.698111,11.91288 16.838067,15.77549 7.139956,3.8637 15.017447,5.79555 23.633555,5.79555 6.148655,0 12.176367,-1.10253 18.082059,-3.30758 5.90568,-2.20397 11.02308,-5.16707 15.35111,-8.8893 l -8.37314,-10.80064 c -3.39828,3.15531 -7.29221,5.60333 -11.68071,7.34296 -4.388504,1.73856 -8.848276,2.60892 -13.379319,2.60892 -5.784746,0 -11.104078,-1.36601 -15.957995,-4.09587 -4.853917,-2.73093 -8.697096,-6.46181 -11.528458,-11.194782 -2.831362,-4.732974 -4.247043,-9.910845 -4.247043,-15.533614 0,-5.703757 1.415681,-10.921582 4.247043,-15.654556 M 0,9.7656249e-7 l 160,0 L 160,160 0,160 0,9.7656249e-7 Z"
       style="fill:#103648;fill-opacity:1;fill-rule:nonzero;stroke:none"
       id="path4175" /></g></svg>